<svg width="20" height="19" viewBox="0 0 20 19" fill="none" xmlns="http://www.w3.org/2000/svg">
<path d="M18.383 1.6169C17.3937 0.638047 15.968 0.0105307 14.468 0.0105307C13.585 0.0105307 12.7552 0.212524 11.9575 0.616969C11.1595 1.02115 10.5107 1.57422 10 2.27641C9.48938 1.57422 8.84049 1.02115 8.04255 0.616936C7.24458 0.212524 6.41484 0.010498 5.53199 0.010498C4.03206 0.010498 2.60657 0.638047 1.61706 1.61687C0.627745 2.59553 0 4.02102 0 5.52118C0 6.55292 0.219216 7.55445 0.489314 8.30841C0.623431 8.6822 0.826111 9.08729 1.09572 9.49991C1.36853 9.91726 1.61703 10.2659 1.82967 10.5423C2.04255 10.819 2.34575 11.1648 2.7552 11.5636C3.16484 11.9628 3.49984 12.2764 3.74448 12.4997C3.98912 12.7233 4.36134 13.0533 4.85088 13.4786C5.41441 13.9681 5.81634 14.3326 6.07438 14.5636C6.32696 14.7899 6.69147 15.138 7.1701 15.5956C8.13827 16.5208 8.84863 17.3735 9.52111 18.3508C9.6466 18.5333 9.80843 18.6168 9.99974 18.6168C10.202 18.6168 10.3769 18.5351 10.4997 18.3508C10.9303 17.7051 11.4279 17.0447 12.0103 16.3933C12.5981 15.7361 13.0875 15.2261 13.4785 14.8614C13.8748 14.4919 14.4444 13.9763 15.1807 13.319C15.6359 12.9123 15.9997 12.6062 16.2446 12.3829C16.4892 12.1594 16.8084 11.8509 17.2021 11.4574C17.5957 11.0636 17.9068 10.7252 18.1276 10.4465C18.3537 10.1615 18.5925 9.81671 18.8616 9.40413C19.4115 8.56145 19.6523 7.89422 19.8509 6.95736C19.9498 6.48984 19.9998 6.0105 19.9998 5.52122C20 4.02102 19.3723 2.59553 18.383 1.6169Z" fill="white"/>
</svg>
