<svg width="22" height="22" viewBox="0 0 22 22" fill="none" xmlns="http://www.w3.org/2000/svg">
<path fill-rule="evenodd" clip-rule="evenodd" d="M11 21.6071C17.0751 21.6071 22 16.7702 22 10.8036C22 4.83692 17.0751 0 11 0C4.92487 0 0 4.83692 0 10.8036C0 16.7702 4.92487 21.6071 11 21.6071ZM10.9999 20.4066C16.4001 20.4066 20.7777 16.1071 20.7777 10.8034C20.7777 5.49974 16.4001 1.20026 10.9999 1.20026C5.59983 1.20026 1.22217 5.49974 1.22217 10.8034C1.22217 16.1071 5.59983 20.4066 10.9999 20.4066ZM7.33331 9.603C8.00832 9.603 8.55553 9.06557 8.55553 8.40261C8.55553 7.73965 8.00832 7.20221 7.33331 7.20221C6.65829 7.20221 6.11108 7.73965 6.11108 8.40261C6.11108 9.06557 6.65829 9.603 7.33331 9.603ZM14.6666 9.603C15.3416 9.603 15.8888 9.06557 15.8888 8.40261C15.8888 7.73965 15.3416 7.20221 14.6666 7.20221C13.9915 7.20221 13.4443 7.73965 13.4443 8.40261C13.4443 9.06557 13.9915 9.603 14.6666 9.603ZM11 16.8054C13.7 16.8054 15.8889 14.6557 15.8889 12.0038H6.11108C6.11108 14.6557 8.29991 16.8054 11 16.8054Z" fill="#97A3B4"/>
</svg>
